<svg width="100%" height="100%" viewBox="0 0 605 140" fill="none" xmlns="http://www.w3.org/2000/svg">
<rect x="0.106445" width="116.617" height="46.6667" fill="white"/>
<rect x="80" y="51.3333" width="60" height="46.6667" fill="white"/>
<rect y="93.3333" width="46.6469" height="46.6667" fill="white"/>
<path d="M184.722 106.431V35.7737H213.546C220.983 35.7737 226.675 37.5777 230.624 41.1858C234.573 44.7938 236.547 49.7716 236.547 56.1191C236.547 62.4666 234.573 67.4778 230.624 71.1527C226.675 74.7607 220.983 76.5647 213.546 76.5647H193.902V106.431H184.722ZM193.902 68.9477H212.658C217.528 68.9477 221.213 67.8453 223.714 65.6403C226.215 63.3686 227.465 60.1949 227.465 56.1191C227.465 52.0433 226.215 48.903 223.714 46.6981C221.213 44.4931 217.528 43.3907 212.658 43.3907H193.902V68.9477Z" fill="white"/>
<path d="M248.42 106.431V56.0189H257.403V106.431H248.42ZM247.63 44.9943V35.1723H258.291V44.9943H247.63Z" fill="white"/>
<path d="M291.377 107.333C287.033 107.333 283.216 106.298 279.926 104.226C276.635 102.155 274.069 99.1485 272.226 95.2063C270.383 91.2642 269.462 86.5871 269.462 81.175C269.462 75.7629 270.383 71.1192 272.226 67.2439C274.069 63.3018 276.635 60.2951 279.926 58.2238C283.216 56.1525 287.033 55.1169 291.377 55.1169C295.786 55.1169 299.603 56.2527 302.828 58.5245C306.118 60.7294 308.29 63.7695 309.343 67.6448H308.158L309.244 56.0189H317.931C317.734 58.0233 317.536 60.0278 317.339 62.0323C317.207 64.0368 317.141 66.0078 317.141 67.9455V106.431H308.158V94.9057H309.244C308.191 98.7142 306.019 101.754 302.729 104.026C299.504 106.231 295.72 107.333 291.377 107.333ZM293.45 100.117C297.925 100.117 301.511 98.5137 304.21 95.3066C306.908 92.0994 308.257 87.3889 308.257 81.175C308.257 74.9612 306.908 70.284 304.21 67.1437C301.511 64.0034 297.925 62.4332 293.45 62.4332C288.975 62.4332 285.355 64.0034 282.591 67.1437C279.893 70.284 278.544 74.9612 278.544 81.175C278.544 87.3889 279.893 92.0994 282.591 95.3066C285.289 98.5137 288.909 100.117 293.45 100.117Z" fill="white"/>
<path d="M332.192 106.431V67.9455C332.192 66.0078 332.126 64.0368 331.995 62.0323C331.863 60.0278 331.666 58.0233 331.402 56.0189H340.089L341.077 66.843H339.892C341.406 63.0345 343.742 60.128 346.901 58.1236C350.06 56.1191 353.745 55.1169 357.957 55.1169C363.814 55.1169 368.223 56.7538 371.185 60.0278C374.146 63.235 375.627 68.2462 375.627 75.0614V106.431H366.644V75.5625C366.644 70.9522 365.755 67.6448 363.978 65.6403C362.202 63.5691 359.437 62.5334 355.686 62.5334C351.211 62.5334 347.658 63.9031 345.025 66.6426C342.459 69.382 341.175 73.0903 341.175 77.7674V106.431H332.192Z" fill="white"/>
<path d="M411.25 107.333C406.38 107.333 402.168 106.298 398.614 104.226C395.06 102.088 392.296 99.0817 390.322 95.2063C388.348 91.2642 387.361 86.5871 387.361 81.175C387.361 75.8298 388.348 71.2195 390.322 67.3442C392.296 63.402 395.06 60.3953 398.614 58.324C402.168 56.1859 406.38 55.1169 411.25 55.1169C416.12 55.1169 420.331 56.1859 423.885 58.324C427.505 60.3953 430.269 63.402 432.177 67.3442C434.151 71.2195 435.139 75.8298 435.139 81.175C435.139 86.5871 434.151 91.2642 432.177 95.2063C430.269 99.0817 427.505 102.088 423.885 104.226C420.331 106.298 416.12 107.333 411.25 107.333ZM411.25 100.117C415.725 100.117 419.311 98.5137 422.01 95.3066C424.708 92.0994 426.057 87.3889 426.057 81.175C426.057 74.9612 424.708 70.284 422.01 67.1437C419.311 64.0034 415.725 62.4332 411.25 62.4332C406.709 62.4332 403.089 64.0034 400.391 67.1437C397.759 70.284 396.442 74.9612 396.442 81.175C396.442 87.3889 397.759 92.0994 400.391 95.3066C403.089 98.5137 406.709 100.117 411.25 100.117Z" fill="white"/>
<path d="M448.186 106.431V35.7737H477.011C484.447 35.7737 490.173 37.5443 494.187 41.0855C498.267 44.6268 500.307 49.5711 500.307 55.9187C500.307 60.128 499.386 63.7027 497.543 66.6426C495.701 69.5825 493.101 71.8208 489.745 73.3576C486.454 74.8943 482.605 75.6627 478.195 75.6627L479.873 74.2596H482.243C484.941 74.2596 487.343 74.9612 489.449 76.3643C491.555 77.7006 493.299 79.9055 494.681 82.979L504.552 106.431H494.384L484.809 83.1795C483.69 80.3064 482.045 78.4356 479.873 77.567C477.767 76.6984 475.102 76.2641 471.878 76.2641H457.366V106.431H448.186ZM457.366 69.048H475.629C480.696 69.048 484.546 67.9455 487.178 65.7406C489.876 63.5357 491.226 60.3285 491.226 56.1191C491.226 51.9765 489.876 48.8362 487.178 46.6981C484.546 44.4931 480.696 43.3907 475.629 43.3907H457.366V69.048Z" fill="white"/>
<path d="M535.607 107.333C530.737 107.333 526.525 106.298 522.972 104.226C519.418 102.088 516.654 99.0817 514.68 95.2063C512.705 91.2642 511.718 86.5871 511.718 81.175C511.718 75.8298 512.705 71.2195 514.68 67.3442C516.654 63.402 519.418 60.3953 522.972 58.324C526.525 56.1859 530.737 55.1169 535.607 55.1169C540.477 55.1169 544.689 56.1859 548.243 58.324C551.862 60.3953 554.626 63.402 556.535 67.3442C558.509 71.2195 559.496 75.8298 559.496 81.175C559.496 86.5871 558.509 91.2642 556.535 95.2063C554.626 99.0817 551.862 102.088 548.243 104.226C544.689 106.298 540.477 107.333 535.607 107.333ZM535.607 100.117C540.082 100.117 543.669 98.5137 546.367 95.3066C549.065 92.0994 550.414 87.3889 550.414 81.175C550.414 74.9612 549.065 70.284 546.367 67.1437C543.669 64.0034 540.082 62.4332 535.607 62.4332C531.066 62.4332 527.447 64.0034 524.749 67.1437C522.116 70.284 520.8 74.9612 520.8 81.175C520.8 87.3889 522.116 92.0994 524.749 95.3066C527.447 98.5137 531.066 100.117 535.607 100.117Z" fill="white"/>
<path d="M571.556 106.431V32.6667H580.539V106.431H571.556Z" fill="white"/>
<path d="M595.56 106.431V32.6667H604.543V106.431H595.56Z" fill="white"/>
</svg>
